<?xml version="1.0" encoding="utf-8"?>
<!-- Generator: Adobe Illustrator 24.1.0, SVG Export Plug-In . SVG Version: 6.00 Build 0)  -->
<svg version="1.1" id="Layer_1" xmlns="http://www.w3.org/2000/svg" xmlns:xlink="http://www.w3.org/1999/xlink" x="0px" y="0px"
	 viewBox="0 0 16 16" style="enable-background:new 0 0 16 16;" xml:space="preserve">
<style type="text/css">
	.st0{fill-rule:evenodd;clip-rule:evenodd;fill:url(#SVGID_1_);}
	.st1{fill-rule:evenodd;clip-rule:evenodd;fill:url(#SVGID_2_);}
	.st2{fill-rule:evenodd;clip-rule:evenodd;fill:url(#SVGID_3_);}
	.st3{fill-rule:evenodd;clip-rule:evenodd;fill:url(#SVGID_4_);}
	.st4{fill-rule:evenodd;clip-rule:evenodd;fill:url(#SVGID_5_);}
	.st5{fill-rule:evenodd;clip-rule:evenodd;fill:url(#SVGID_6_);}
	.st6{fill-rule:evenodd;clip-rule:evenodd;fill:url(#SVGID_7_);}
	.st7{fill-rule:evenodd;clip-rule:evenodd;fill:url(#SVGID_8_);}
	.st8{fill-rule:evenodd;clip-rule:evenodd;fill:url(#SVGID_9_);}
	.st9{fill-rule:evenodd;clip-rule:evenodd;fill:url(#SVGID_10_);}
	.st10{fill-rule:evenodd;clip-rule:evenodd;fill:url(#SVGID_11_);}
	.st11{fill-rule:evenodd;clip-rule:evenodd;fill:url(#SVGID_12_);}
	.st12{fill-rule:evenodd;clip-rule:evenodd;fill:url(#SVGID_13_);}
	.st13{fill-rule:evenodd;clip-rule:evenodd;fill:url(#SVGID_14_);}
	.st14{opacity:0.75;fill-rule:evenodd;clip-rule:evenodd;fill:url(#SVGID_15_);}
	.st15{opacity:0.75;fill-rule:evenodd;clip-rule:evenodd;fill:url(#SVGID_16_);}
	.st16{fill-rule:evenodd;clip-rule:evenodd;fill:url(#SVGID_17_);}
	.st17{opacity:0.65;fill-rule:evenodd;clip-rule:evenodd;fill:url(#SVGID_18_);}
	.st18{fill-rule:evenodd;clip-rule:evenodd;fill:url(#SVGID_19_);}
	.st19{fill-rule:evenodd;clip-rule:evenodd;fill:#BE8955;}
	.st20{fill-rule:evenodd;clip-rule:evenodd;fill:#E6E6E5;}
	.st21{fill-rule:evenodd;clip-rule:evenodd;fill:url(#SVGID_20_);}
	.st22{fill-rule:evenodd;clip-rule:evenodd;fill:url(#SVGID_21_);}
	.st23{fill-rule:evenodd;clip-rule:evenodd;fill:url(#SVGID_22_);}
	.st24{fill-rule:evenodd;clip-rule:evenodd;fill:url(#SVGID_23_);}
	.st25{fill-rule:evenodd;clip-rule:evenodd;fill:url(#SVGID_24_);}
	.st26{fill-rule:evenodd;clip-rule:evenodd;fill:url(#SVGID_25_);}
	.st27{fill-rule:evenodd;clip-rule:evenodd;fill:url(#SVGID_26_);}
	.st28{opacity:0.65;fill-rule:evenodd;clip-rule:evenodd;fill:#FFFFFF;}
	.st29{opacity:0.45;fill-rule:evenodd;clip-rule:evenodd;fill:#FFFFFF;}
	.st30{fill-rule:evenodd;clip-rule:evenodd;fill:url(#SVGID_27_);}
	.st31{fill-rule:evenodd;clip-rule:evenodd;fill:url(#SVGID_28_);}
	.st32{fill-rule:evenodd;clip-rule:evenodd;fill:url(#SVGID_29_);}
	.st33{fill-rule:evenodd;clip-rule:evenodd;fill:url(#SVGID_30_);}
	.st34{fill-rule:evenodd;clip-rule:evenodd;fill:url(#SVGID_31_);}
	.st35{fill-rule:evenodd;clip-rule:evenodd;fill:url(#SVGID_32_);}
	.st36{opacity:0.7;fill-rule:evenodd;clip-rule:evenodd;fill:#FFFCE5;}
	.st37{fill-rule:evenodd;clip-rule:evenodd;fill:url(#SVGID_33_);}
	.st38{fill-rule:evenodd;clip-rule:evenodd;fill:url(#SVGID_34_);}
	.st39{fill-rule:evenodd;clip-rule:evenodd;fill:url(#SVGID_35_);}
	.st40{fill-rule:evenodd;clip-rule:evenodd;fill:url(#SVGID_36_);}
	.st41{fill-rule:evenodd;clip-rule:evenodd;fill:url(#SVGID_37_);}
</style>
<g>
	<g>
		
			<linearGradient id="SVGID_1_" gradientUnits="userSpaceOnUse" x1="320.0453" y1="250.2163" x2="320.0453" y2="242.4294" gradientTransform="matrix(0.9291 -0.3699 0.3699 0.9291 -380.0565 -103.4094)">
			<stop  offset="0" style="stop-color:#E76B24"/>
			<stop  offset="1" style="stop-color:#F7901E"/>
		</linearGradient>
		<path class="st0" d="M10.71,1.96c-0.5,0.2-0.75,0.77-0.55,1.27C10.3,3.59,10.64,3.82,11,3.84c0.11,0.92-0.03,2.12-0.3,3.02
			c-0.27,0.93-0.88,1.58-1.63,1.88C8.32,9.04,7.43,8.98,6.59,8.5C5.78,8.03,4.85,7.26,4.3,6.51c0.25-0.27,0.33-0.66,0.19-1.02
			c-0.2-0.5-0.77-0.75-1.27-0.55c-0.5,0.2-0.75,0.77-0.55,1.27c0.18,0.44,0.64,0.68,1.09,0.6c0.41,1.07,0.6,3.06-0.07,3.94
			l1.37,1.83l4.78-1.9l4.78-1.9L14.36,6.5c-1.09-0.18-2.32-1.76-2.76-2.82c0.39-0.25,0.55-0.74,0.38-1.18
			C11.78,2,11.21,1.76,10.71,1.96L10.71,1.96z"/>
		
			<radialGradient id="SVGID_2_" cx="320.0834" cy="240.5601" r="9.4476" gradientTransform="matrix(0.9291 -0.3699 0.3699 0.9291 -380.0565 -103.4094)" gradientUnits="userSpaceOnUse">
			<stop  offset="0.5149" style="stop-color:#FFFFFF"/>
			<stop  offset="0.6372" style="stop-color:#F7DDC1"/>
			<stop  offset="0.918" style="stop-color:#E79A47"/>
			<stop  offset="1" style="stop-color:#E28925"/>
		</radialGradient>
		<path class="st1" d="M13.12,5.81c-0.65,0.4-1.75,0.13-2.11-0.71c-0.05,0.61-0.16,1.24-0.31,1.76c-0.27,0.93-0.88,1.58-1.63,1.88
			C8.32,9.04,7.43,8.98,6.59,8.5C6.12,8.23,5.61,7.85,5.15,7.44C5.48,8.29,4.86,9.25,4.11,9.4c-0.04,0.53-0.17,1.02-0.42,1.35
			l1.37,1.83l4.78-1.9l4.78-1.9L14.36,6.5C13.95,6.43,13.52,6.17,13.12,5.81L13.12,5.81z"/>
		
			<linearGradient id="SVGID_3_" gradientUnits="userSpaceOnUse" x1="312.423" y1="244.0088" x2="313.8013" y2="244.0088" gradientTransform="matrix(0.9291 -0.3699 0.3699 0.9291 -380.0565 -103.4094)">
			<stop  offset="0" style="stop-color:#EC8F23"/>
			<stop  offset="1" style="stop-color:#FFCC31"/>
		</linearGradient>
		<path class="st2" d="M0.31,7.34c-0.03-0.07,0-0.19,0.08-0.25c0.23-0.11,0.48-0.13,0.72-0.08c0.26,0.06,0.57,0.22,0.78,0.57
			l-0.84,0.6L0.31,7.34L0.31,7.34z"/>
		
			<linearGradient id="SVGID_4_" gradientUnits="userSpaceOnUse" x1="320.0453" y1="241.6105" x2="320.0453" y2="240.0167" gradientTransform="matrix(0.9291 -0.3699 0.3699 0.9291 -380.0565 -103.4094)">
			<stop  offset="0" style="stop-color:#EC8F23"/>
			<stop  offset="1" style="stop-color:#FFCC31"/>
		</linearGradient>
		<path class="st3" d="M6.07,1.21c-0.7,0.28-1.04,1.07-0.76,1.77l0.08,0.21l1.27-0.5l1.27-0.5L7.84,1.97
			C7.56,1.27,6.77,0.93,6.07,1.21L6.07,1.21z"/>
		
			<linearGradient id="SVGID_5_" gradientUnits="userSpaceOnUse" x1="326.2893" y1="244.0088" x2="327.6676" y2="244.0088" gradientTransform="matrix(0.9291 -0.3699 0.3699 0.9291 -380.0565 -103.4094)">
			<stop  offset="0" style="stop-color:#EC8F23"/>
			<stop  offset="1" style="stop-color:#FFCC31"/>
		</linearGradient>
		<path class="st4" d="M14.47,1.7c-0.03-0.07-0.13-0.14-0.23-0.12C14,1.65,13.8,1.81,13.66,2.01c-0.15,0.22-0.26,0.55-0.17,0.95
			l1.02-0.14L14.47,1.7L14.47,1.7z"/>
		
			<linearGradient id="SVGID_6_" gradientUnits="userSpaceOnUse" x1="314.1926" y1="251.9631" x2="325.898" y2="251.9631" gradientTransform="matrix(0.9291 -0.3699 0.3699 0.9291 -380.0565 -103.4094)">
			<stop  offset="0.052" style="stop-color:#ED9622"/>
			<stop  offset="0.4033" style="stop-color:#FFCD05"/>
			<stop  offset="0.9257" style="stop-color:#B26828"/>
		</linearGradient>
		<path class="st5" d="M15.28,8.53l0.61,1.54c0.04,0.1,0.05,0.2,0.03,0.3c-0.16,0.97-2.11,2.46-4.8,3.54
			c-2.7,1.07-5.14,1.33-5.92,0.73c-0.09-0.07-0.14-0.14-0.18-0.24l-0.61-1.54C5.77,14.72,15.57,10.82,15.28,8.53L15.28,8.53z"/>
		
			<linearGradient id="SVGID_7_" gradientUnits="userSpaceOnUse" x1="312.423" y1="246.1848" x2="327.6676" y2="246.1848" gradientTransform="matrix(0.9291 -0.3699 0.3699 0.9291 -380.0565 -103.4094)">
			<stop  offset="0.052" style="stop-color:#ED9622"/>
			<stop  offset="0.4033" style="stop-color:#FFCD05"/>
			<stop  offset="0.9257" style="stop-color:#B26828"/>
		</linearGradient>
		<path class="st6" d="M6.15,1.42c0.7-0.28,1.49,0.06,1.77,0.76C8.13,2.7,8,3.27,7.63,3.64c0.99,1.46,2.54,3.27,4.29,3.15
			c1.5-0.11,2.29-1.74,2.28-2.92c-0.38-0.15-0.66-0.49-0.72-0.91c-0.08-0.62,0.36-1.19,0.98-1.26c0.14,2.35,0.44,4.78,0.89,7.01
			c0.19,0.95-1.91,2.59-4.81,3.74c-2.9,1.15-5.55,1.41-6.07,0.59c-1.21-1.93-2.67-3.9-4.18-5.7c0.5-0.37,1.21-0.26,1.58,0.24
			c0.25,0.35,0.28,0.79,0.11,1.16c0.8,0.86,2.5,1.51,3.66,0.55c1.36-1.12,1.24-3.5,0.96-5.24C6.09,4.03,5.6,3.71,5.39,3.19
			C5.11,2.49,5.45,1.7,6.15,1.42L6.15,1.42z"/>
		
			<linearGradient id="SVGID_8_" gradientUnits="userSpaceOnUse" x1="312.423" y1="247.4778" x2="315.3776" y2="247.4778" gradientTransform="matrix(0.9291 -0.3699 0.3699 0.9291 -380.0565 -103.4094)">
			<stop  offset="1.100000e-07" style="stop-color:#F8A066"/>
			<stop  offset="1" style="stop-color:#FFFFFF"/>
		</linearGradient>
		<path class="st7" d="M5.95,13.52c-0.86-1.39-1.74-2.7-2.64-3.94c-0.52-0.19-0.99-0.5-1.31-0.84c0.17-0.36,0.15-0.81-0.11-1.16
			c-0.37-0.5-1.08-0.61-1.58-0.24c1.51,1.8,2.97,3.77,4.18,5.7C4.68,13.36,5.21,13.52,5.95,13.52L5.95,13.52z"/>
		
			<linearGradient id="SVGID_9_" gradientUnits="userSpaceOnUse" x1="323.7209" y1="247.6344" x2="327.6676" y2="247.6344" gradientTransform="matrix(0.9291 -0.3699 0.3699 0.9291 -380.0565 -103.4094)">
			<stop  offset="1.100000e-07" style="stop-color:#FFFFFF"/>
			<stop  offset="1" style="stop-color:#F8A066"/>
		</linearGradient>
		<path class="st8" d="M12.92,6.46c0.24,1.41,0.54,2.83,0.9,4.27c1.02-0.73,1.61-1.45,1.55-1.97c0,0,0,0,0-0.01
			c0-0.01,0-0.03-0.01-0.04c-0.45-2.24-0.74-4.67-0.89-7.01l0,0c-0.62,0.08-1.06,0.64-0.98,1.26c0.05,0.43,0.34,0.77,0.72,0.91
			C14.21,4.76,13.77,5.9,12.92,6.46L12.92,6.46z"/>
		
			<radialGradient id="SVGID_10_" cx="316.1545" cy="246.8033" r="6.4126" gradientTransform="matrix(0.9291 -0.3699 0.3699 0.9291 -380.0565 -103.4094)" gradientUnits="userSpaceOnUse">
			<stop  offset="0" style="stop-color:#FFF0B1"/>
			<stop  offset="1" style="stop-color:#010101"/>
		</radialGradient>
		<path class="st9" d="M8.82,13.04C8.08,11.4,7.28,9.8,6.42,8.24C6.24,8.65,6,9.01,5.65,9.29C5.36,9.53,5.04,9.66,4.7,9.72
			c0.83,1.19,1.58,2.44,2.27,3.72C7.54,13.37,8.16,13.23,8.82,13.04L8.82,13.04z"/>
		
			<radialGradient id="SVGID_11_" cx="314.4022" cy="246.2913" r="9.8802" gradientTransform="matrix(0.9291 -0.3699 0.3699 0.9291 -380.0565 -103.4094)" gradientUnits="userSpaceOnUse">
			<stop  offset="0" style="stop-color:#FFF0B1"/>
			<stop  offset="1" style="stop-color:#010101"/>
		</radialGradient>
		<path class="st10" d="M8.75,5.09c0.74,2.39,1.56,4.76,2.51,7.07c0.5-0.22,0.97-0.46,1.4-0.7c-0.47-1.55-0.91-3.1-1.28-4.69
			C10.4,6.62,9.5,5.92,8.75,5.09L8.75,5.09z"/>
		
			<linearGradient id="SVGID_12_" gradientUnits="userSpaceOnUse" x1="320.5943" y1="245.3546" x2="326.616" y2="245.3546" gradientTransform="matrix(0.9291 -0.3699 0.3699 0.9291 -380.0565 -103.4094)">
			<stop  offset="0" style="stop-color:#EC8F23"/>
			<stop  offset="1" style="stop-color:#FFCC31"/>
		</linearGradient>
		<path class="st11" d="M11.92,6.79c1.5-0.11,2.29-1.74,2.28-2.92c0.11,0.9-0.1,2.13-1.01,2.82C10.91,8.4,8.54,5.57,7.63,3.64
			C8.62,5.1,10.17,6.91,11.92,6.79L11.92,6.79z"/>
		
			<linearGradient id="SVGID_13_" gradientUnits="userSpaceOnUse" x1="313.4746" y1="245.3546" x2="319.4963" y2="245.3546" gradientTransform="matrix(0.9291 -0.3699 0.3699 0.9291 -380.0565 -103.4094)">
			<stop  offset="0" style="stop-color:#FFCC31"/>
			<stop  offset="1" style="stop-color:#EC8F23"/>
		</linearGradient>
		<path class="st12" d="M5.65,9.29C4.49,10.24,2.8,9.6,1.99,8.74c0.54,0.73,1.54,1.48,2.67,1.35C7.5,9.76,7.28,6.07,6.61,4.05
			C6.89,5.79,7.02,8.17,5.65,9.29L5.65,9.29z"/>
		
			<linearGradient id="SVGID_14_" gradientUnits="userSpaceOnUse" x1="314.1926" y1="251.6949" x2="315.3776" y2="251.6949" gradientTransform="matrix(0.9291 -0.3699 0.3699 0.9291 -380.0565 -103.4094)">
			<stop  offset="1.100000e-07" style="stop-color:#F8A066"/>
			<stop  offset="1" style="stop-color:#FFFFFF"/>
		</linearGradient>
		<path class="st13" d="M6.52,14.96l-0.57-1.44c-0.74,0-1.27-0.16-1.47-0.48l0.54,1.36c0.04,0.1,0.1,0.18,0.18,0.24
			C5.47,14.85,5.93,14.95,6.52,14.96L6.52,14.96z"/>
		
			<radialGradient id="SVGID_15_" cx="316.29" cy="251.5425" r="4.5976" gradientTransform="matrix(0.9291 -0.3699 0.3699 0.9291 -380.0565 -103.4094)" gradientUnits="userSpaceOnUse">
			<stop  offset="0" style="stop-color:#FFF0B1"/>
			<stop  offset="1" style="stop-color:#010101"/>
		</radialGradient>
		<path class="st14" d="M6.98,13.44l0.58,1.45c0.56-0.07,1.19-0.2,1.85-0.39l-0.58-1.46C8.16,13.23,7.54,13.37,6.98,13.44
			L6.98,13.44z"/>
		
			<radialGradient id="SVGID_16_" cx="319.2737" cy="252.994" r="3.3596" gradientTransform="matrix(0.9291 -0.3699 0.3699 0.9291 -380.0565 -103.4094)" gradientUnits="userSpaceOnUse">
			<stop  offset="0" style="stop-color:#FFF0B1"/>
			<stop  offset="1" style="stop-color:#010101"/>
		</radialGradient>
		<path class="st15" d="M11.25,12.16l0.58,1.46c0.5-0.22,0.97-0.46,1.4-0.71l-0.58-1.46C12.23,11.7,11.76,11.93,11.25,12.16
			L11.25,12.16z"/>
		
			<linearGradient id="SVGID_17_" gradientUnits="userSpaceOnUse" x1="323.7209" y1="251.8556" x2="325.898" y2="251.8556" gradientTransform="matrix(0.9291 -0.3699 0.3699 0.9291 -380.0565 -103.4094)">
			<stop  offset="1.100000e-07" style="stop-color:#FFFFFF"/>
			<stop  offset="1" style="stop-color:#F8A066"/>
		</linearGradient>
		<path class="st16" d="M13.81,10.72l0.58,1.45c0.9-0.65,1.46-1.29,1.54-1.8c0.02-0.11,0.01-0.2-0.03-0.3l-0.54-1.36
			C15.46,9.24,14.86,9.97,13.81,10.72L13.81,10.72z"/>
		
			<radialGradient id="SVGID_18_" cx="320.0031" cy="251.6192" r="8.7106" gradientTransform="matrix(0.9291 -0.3699 0.3699 0.9291 -380.0565 -103.4094)" gradientUnits="userSpaceOnUse">
			<stop  offset="0" style="stop-color:#FFF0B1"/>
			<stop  offset="1" style="stop-color:#010101"/>
		</radialGradient>
		<path class="st17" d="M15.15,9.4c-0.56,0.94-2.35,2.16-4.64,3.07c-2.29,0.91-4.43,1.26-5.48,0.96c0.99,0.39,3.18,0.09,5.52-0.85
			C12.89,11.65,14.7,10.37,15.15,9.4L15.15,9.4z"/>
		
			<radialGradient id="SVGID_19_" cx="319.8628" cy="241.9608" r="2.7967" gradientTransform="matrix(0.9291 -0.3699 0.3699 0.9291 -380.0565 -103.4094)" gradientUnits="userSpaceOnUse">
			<stop  offset="1.100000e-07" style="stop-color:#F8A066"/>
			<stop  offset="1" style="stop-color:#FFFFFF"/>
		</radialGradient>
		<path class="st18" d="M7.16,3.95c-0.18,0.07-0.37,0.1-0.55,0.1c0.01,0.08,0.03,0.17,0.04,0.26c0.29,0.09,0.6,0.08,0.9-0.04
			c0.14-0.05,0.26-0.13,0.37-0.22c-0.1-0.14-0.19-0.27-0.29-0.41C7.5,3.77,7.34,3.88,7.16,3.95L7.16,3.95z"/>
		<polygon class="st19" points="7.19,9.13 8.6,7.56 10.7,7.74 11.66,10.84 10.32,11.88 8.63,12.05 7.19,9.13 		"/>
		<polygon class="st20" points="7.47,9.17 8.69,7.8 10.53,7.96 11.39,10.76 10.23,11.65 8.77,11.8 7.47,9.17 		"/>
		
			<radialGradient id="SVGID_20_" cx="319.5988" cy="247.8686" r="3.8226" gradientTransform="matrix(0.9291 -0.3699 0.3699 0.9291 -380.0565 -103.4094)" gradientUnits="userSpaceOnUse">
			<stop  offset="0" style="stop-color:#F38AAF"/>
			<stop  offset="1" style="stop-color:#D71F27"/>
		</radialGradient>
		<polygon class="st21" points="8.12,9.26 9.09,11.22 10.02,11.13 10.76,10.56 10.12,8.46 8.92,8.36 8.12,9.26 		"/>
		
			<radialGradient id="SVGID_21_" cx="317.986" cy="248.0686" r="6.3269" gradientTransform="matrix(0.9291 -0.3699 0.3699 0.9291 -380.0565 -103.4094)" gradientUnits="userSpaceOnUse">
			<stop  offset="0" style="stop-color:#F48482"/>
			<stop  offset="1" style="stop-color:#ED1C27"/>
		</radialGradient>
		<polygon class="st22" points="8.77,11.8 9.09,11.22 8.12,9.26 7.47,9.17 8.77,11.8 		"/>
		
			<radialGradient id="SVGID_22_" cx="318.8803" cy="246.3759" r="2.892" gradientTransform="matrix(0.9291 -0.3699 0.3699 0.9291 -380.0565 -103.4094)" gradientUnits="userSpaceOnUse">
			<stop  offset="0" style="stop-color:#FDE2E2"/>
			<stop  offset="1" style="stop-color:#F48991"/>
		</radialGradient>
		<polygon class="st23" points="8.12,9.26 8.92,8.36 8.69,7.8 7.47,9.17 8.12,9.26 		"/>
		
			<radialGradient id="SVGID_23_" cx="318.5934" cy="252.9256" r="2.7338" gradientTransform="matrix(0.9291 -0.3699 0.3699 0.9291 -380.0565 -103.4094)" gradientUnits="userSpaceOnUse">
			<stop  offset="0" style="stop-color:#EB716D"/>
			<stop  offset="0.2714" style="stop-color:#E35253"/>
			<stop  offset="1" style="stop-color:#CE2027"/>
		</radialGradient>
		<polygon class="st24" points="10.02,11.13 9.09,11.22 8.77,11.8 10.23,11.65 10.02,11.13 		"/>
		
			<radialGradient id="SVGID_24_" cx="319.9896" cy="248.0283" r="3.1881" gradientTransform="matrix(0.9291 -0.3699 0.3699 0.9291 -380.0565 -103.4094)" gradientUnits="userSpaceOnUse">
			<stop  offset="0" style="stop-color:#EB716D"/>
			<stop  offset="1" style="stop-color:#CE2027"/>
		</radialGradient>
		<polygon class="st25" points="11.39,10.76 10.76,10.56 10.12,8.46 10.53,7.95 11.39,10.76 		"/>
		
			<radialGradient id="SVGID_25_" cx="320.2836" cy="246.9802" r="4.8136" gradientTransform="matrix(0.9291 -0.3699 0.3699 0.9291 -380.0565 -103.4094)" gradientUnits="userSpaceOnUse">
			<stop  offset="0" style="stop-color:#F48482"/>
			<stop  offset="1" style="stop-color:#ED1C27"/>
		</radialGradient>
		<polygon class="st26" points="10.12,8.46 8.92,8.36 8.69,7.8 10.53,7.95 10.12,8.46 		"/>
		
			<radialGradient id="SVGID_26_" cx="319.9058" cy="248.4338" r="3.1664" gradientTransform="matrix(0.9291 -0.3699 0.3699 0.9291 -380.0565 -103.4094)" gradientUnits="userSpaceOnUse">
			<stop  offset="0" style="stop-color:#FDE2E2"/>
			<stop  offset="1" style="stop-color:#F48991"/>
		</radialGradient>
		<polygon class="st27" points="10.02,11.13 10.76,10.56 11.39,10.76 10.23,11.65 10.02,11.13 		"/>
		<path class="st28" d="M8.46,8.71C8.24,8.98,7.87,9.23,7.47,9.17l0.65,0.09l0.8-0.9L8.69,7.8C8.81,8.1,8.67,8.46,8.46,8.71
			L8.46,8.71z"/>
		<path class="st29" d="M10.38,10.96c0.33-0.28,0.81-0.27,1.02-0.21l-0.63-0.2l-0.74,0.57l0.12,0.3l0.04,0.09
			C10.1,11.33,10.14,11.16,10.38,10.96L10.38,10.96z"/>
		
			<linearGradient id="SVGID_27_" gradientUnits="userSpaceOnUse" x1="318.1562" y1="247.3946" x2="320.0453" y2="247.3946" gradientTransform="matrix(0.9291 -0.3699 0.3699 0.9291 -380.0565 -103.4094)">
			<stop  offset="0" style="stop-color:#F6D36D"/>
			<stop  offset="1" style="stop-color:#FEF6B1"/>
		</linearGradient>
		<polygon class="st30" points="7.47,9.17 8.69,7.8 8.6,7.56 7.19,9.13 7.47,9.17 		"/>
		
			<linearGradient id="SVGID_28_" gradientUnits="userSpaceOnUse" x1="318.3942" y1="251.0391" x2="318.3942" y2="247.7986" gradientTransform="matrix(0.9291 -0.3699 0.3699 0.9291 -380.0565 -103.4094)">
			<stop  offset="0" style="stop-color:#EC8F23"/>
			<stop  offset="1" style="stop-color:#FFCC31"/>
		</linearGradient>
		<polygon class="st31" points="8.77,11.8 7.47,9.17 7.19,9.13 8.63,12.05 8.77,11.8 		"/>
		
			<linearGradient id="SVGID_29_" gradientUnits="userSpaceOnUse" x1="318.4133" y1="251.181" x2="320.0453" y2="251.181" gradientTransform="matrix(0.9291 -0.3699 0.3699 0.9291 -380.0565 -103.4094)">
			<stop  offset="0" style="stop-color:#A24C24"/>
			<stop  offset="1" style="stop-color:#EF9D20"/>
		</linearGradient>
		<polygon class="st32" points="10.23,11.65 8.77,11.8 8.63,12.05 10.32,11.88 10.23,11.65 		"/>
		
			<linearGradient id="SVGID_30_" gradientUnits="userSpaceOnUse" x1="320.0452" y1="247.3946" x2="321.9343" y2="247.3946" gradientTransform="matrix(0.9291 -0.3699 0.3699 0.9291 -380.0565 -103.4094)">
			<stop  offset="0" style="stop-color:#EF9D20"/>
			<stop  offset="1" style="stop-color:#A24C24"/>
		</linearGradient>
		<polygon class="st33" points="10.53,7.95 8.69,7.8 8.6,7.56 10.7,7.74 10.53,7.95 		"/>
		
			<linearGradient id="SVGID_31_" gradientUnits="userSpaceOnUse" x1="321.6964" y1="251.0391" x2="321.6964" y2="247.7986" gradientTransform="matrix(0.9291 -0.3699 0.3699 0.9291 -380.0565 -103.4094)">
			<stop  offset="0" style="stop-color:#A24C24"/>
			<stop  offset="1" style="stop-color:#EF9D20"/>
		</linearGradient>
		<polygon class="st34" points="11.39,10.76 10.53,7.95 10.7,7.74 11.66,10.84 11.39,10.76 		"/>
		
			<linearGradient id="SVGID_32_" gradientUnits="userSpaceOnUse" x1="320.0452" y1="251.181" x2="321.6772" y2="251.181" gradientTransform="matrix(0.9291 -0.3699 0.3699 0.9291 -380.0565 -103.4094)">
			<stop  offset="0" style="stop-color:#FEBF10"/>
			<stop  offset="1" style="stop-color:#DA6C27"/>
		</linearGradient>
		<polygon class="st35" points="10.23,11.65 11.39,10.76 11.66,10.84 10.32,11.88 10.23,11.65 		"/>
		<path class="st36" d="M7.27,9.04c0.49-0.21,1.09-0.87,1.24-1.39L7.27,9.04L7.27,9.04z"/>
		<g>
			
				<radialGradient id="SVGID_33_" cx="319.609" cy="241.2378" r="1.8607" gradientTransform="matrix(0.9291 -0.3699 0.3699 0.9291 -380.0565 -103.4094)" gradientUnits="userSpaceOnUse">
				<stop  offset="0" style="stop-color:#FCCD16"/>
				<stop  offset="0.0308" style="stop-color:#F9C819"/>
				<stop  offset="0.28" style="stop-color:#E7A224"/>
				<stop  offset="0.4711" style="stop-color:#DD8C26"/>
				<stop  offset="0.5799" style="stop-color:#D98427"/>
				<stop  offset="0.6994" style="stop-color:#D47E27"/>
				<stop  offset="0.8609" style="stop-color:#C76F28"/>
				<stop  offset="1" style="stop-color:#B95E27"/>
			</radialGradient>
			<path class="st37" d="M6.15,1.42c0.7-0.28,1.49,0.06,1.77,0.76c0.28,0.7-0.06,1.49-0.76,1.77S5.67,3.89,5.39,3.19
				C5.11,2.49,5.45,1.7,6.15,1.42L6.15,1.42z"/>
			
				<radialGradient id="SVGID_34_" cx="319.1842" cy="240.6489" r="2.265" gradientTransform="matrix(0.9291 -0.3699 0.3699 0.9291 -380.0565 -103.4094)" gradientUnits="userSpaceOnUse">
				<stop  offset="0" style="stop-color:#FEE48A"/>
				<stop  offset="1" style="stop-color:#010101"/>
			</radialGradient>
			<path class="st38" d="M6.08,1.64c0.53-0.21,1.14,0.05,1.35,0.58c0.21,0.53-0.05,1.14-0.58,1.35S5.71,3.53,5.5,2.99
				C5.28,2.46,5.54,1.85,6.08,1.64L6.08,1.64z"/>
			
				<radialGradient id="SVGID_35_" cx="318.7054" cy="240.1818" r="2.2358" gradientTransform="matrix(0.9291 -0.3699 0.3699 0.9291 -380.0565 -103.4094)" gradientUnits="userSpaceOnUse">
				<stop  offset="0" style="stop-color:#FEE48A"/>
				<stop  offset="1" style="stop-color:#010101"/>
			</radialGradient>
			<path class="st39" d="M5.63,2.22C5.8,1.82,6.19,1.6,6.49,1.74c0.3,0.13,0.41,0.56,0.24,0.96C6.56,3.09,6.17,3.3,5.87,3.17
				C5.57,3.04,5.46,2.61,5.63,2.22L5.63,2.22z"/>
			
				<radialGradient id="SVGID_36_" cx="320.1201" cy="241.376" r="2.1475" gradientTransform="matrix(0.9291 -0.3699 0.3699 0.9291 -380.0565 -103.4094)" gradientUnits="userSpaceOnUse">
				<stop  offset="0" style="stop-color:#FEE48A"/>
				<stop  offset="1" style="stop-color:#010101"/>
			</radialGradient>
			<path class="st40" d="M6.82,1.43C7.23,1.51,7.6,1.79,7.76,2.2c0.26,0.64-0.06,1.37-0.7,1.63C6.88,3.9,6.7,3.93,6.53,3.92
				c0.1-0.01,0.2-0.04,0.29-0.08c0.67-0.27,0.99-1.02,0.73-1.69C7.41,1.81,7.14,1.56,6.82,1.43L6.82,1.43z"/>
		</g>
	</g>
	
		<radialGradient id="SVGID_37_" cx="319.4648" cy="247.9651" r="1.7184" gradientTransform="matrix(0.9291 -0.3699 0.3699 0.9291 -380.0565 -103.4094)" gradientUnits="userSpaceOnUse">
		<stop  offset="7.000000e-08" style="stop-color:#F58857"/>
		<stop  offset="9.433577e-03" style="stop-color:#EC8456"/>
		<stop  offset="0.1641" style="stop-color:#A16247"/>
		<stop  offset="0.3183" style="stop-color:#6B4738"/>
		<stop  offset="0.4687" style="stop-color:#47322A"/>
		<stop  offset="0.6144" style="stop-color:#2C221E"/>
		<stop  offset="0.7542" style="stop-color:#181311"/>
		<stop  offset="0.8856" style="stop-color:#070605"/>
		<stop  offset="1" style="stop-color:#010101"/>
	</radialGradient>
	<path class="st41" d="M10.07,8.17c0.35,0.88-0.08,1.88-0.96,2.23c-0.88,0.35-1.88-0.08-2.23-0.96C6.52,8.56,6.95,7.56,7.83,7.21
		C8.72,6.86,9.72,7.29,10.07,8.17z"/>
</g>
</svg>
